<?xml version="1.0" encoding="UTF-8" standalone="no"?>
<!-- Created with Inkscape (http://www.inkscape.org/) -->

<svg
   width="100mm"
   height="100mm"
   viewBox="0 0 100 100"
   version="1.1"
   id="svg1"
   inkscape:export-filename="bentSword.svg"
   inkscape:export-xdpi="96"
   inkscape:export-ydpi="96"
   xmlns:inkscape="http://www.inkscape.org/namespaces/inkscape"
   xmlns:sodipodi="http://sodipodi.sourceforge.net/DTD/sodipodi-0.dtd"
   xmlns="http://www.w3.org/2000/svg"
   xmlns:svg="http://www.w3.org/2000/svg">
  <sodipodi:namedview
     id="namedview1"
     pagecolor="#ffffff"
     bordercolor="#000000"
     borderopacity="0.25"
     inkscape:showpageshadow="2"
     inkscape:pageopacity="0.0"
     inkscape:pagecheckerboard="0"
     inkscape:deskcolor="#d1d1d1"
     inkscape:document-units="mm">
    <inkscape:page
       x="0"
       y="0"
       width="100"
       height="100"
       id="page2"
       margin="0"
       bleed="0" />
  </sodipodi:namedview>
  <defs
     id="defs1" />
  <g
     inkscape:groupmode="layer"
     id="layer2"
     inkscape:label="Layer 2"
     style="display:inline">
    <rect
       style="display:inline;fill:#3498db;fill-opacity:1;stroke-width:0.187798"
       id="rect5"
       width="99.801315"
       height="84.544441"
       x="-99.860123"
       y="7.5088015"
       ry="27.574974"
       transform="scale(-1,1)" />
  </g>
  <g
     inkscape:label="Layer 1"
     inkscape:groupmode="layer"
     id="layer1">
    <path
       style="fill:#000000;stroke-width:0.239878"
       d="m 22.42657,51.221354 20.530598,35.301882 25.43187,0.22766 L 90.35829,52.610245 91.811453,24.317331 71.58028,35.358221 c 0,0 -13.072938,18.613496 -13.072938,19.83339 0,1.219902 -13.186813,-20.145157 -13.186813,-20.145157 l 10.279445,-6.50112 -6.665853,-9.944705 -15.243259,6.117725 -7.257764,-6.294702 c 0,0 0.146118,-5.138612 -2.392323,-7.170584 -2.598051,-2.0796891 -7.655716,-1.2570493 -11.361811,2.335571 -1.66757,1.616519 -5.4250045,5.423447 -3.1013755,9.889445 1.7575985,3.378066 6.3575855,3.171575 6.3575855,3.171575 l 4.823775,8.919718 -13.6366255,13.89244 4.7839495,9.524582 z"
       id="path1"
       sodipodi:nodetypes="ccccccscccccsssccccc" />
    <path
       style="fill:#ffffff;fill-opacity:1;stroke-width:0.239878"
       d="m 26.259166,47.707996 3.589754,-2.541065 17.970615,27.33822 -3.427212,5.259133 z"
       id="path2"
       sodipodi:nodetypes="ccccc" />
    <path
       style="fill:#ffffff;fill-opacity:1;stroke-width:0.239878"
       d="m 37.562901,41.085515 3.296068,-2.839677 14.084837,22.474096 -2.842339,6.235242 z"
       id="path3"
       sodipodi:nodetypes="ccccc" />
    <path
       style="fill:#ffffff;fill-opacity:1;stroke-width:0.239878"
       d="M 48.664603,80.933927 74.046058,39.395876 89.642617,27.748955 77.340702,43.211613 54.625797,80.872936 Z"
       id="path4"
       sodipodi:nodetypes="cccccc" />
    <path
       style="fill:#ffffff;fill-opacity:1;stroke-width:0.239878"
       d="M 60.964842,81.153974 81.802841,48.715935 90.099534,28.44377 86.05869,50.97615 65.583159,81.548234 Z"
       id="path5"
       sodipodi:nodetypes="cccccc" />
  </g>
</svg>
